<svg width="506" height="200" viewBox="0 0 506 200" fill="none" xmlns="http://www.w3.org/2000/svg">
<g clip-path="url(#clip0_604_7611)">
<path d="M48.2949 40.747L16.4548 120.373L48.7654 200H457.027L489.336 120.373L457.497 40.747H48.2949Z" fill="#FFD52E"/>
<path d="M463.739 40.747L495.578 120.373L463.267 200H473.482L505.792 120.373L473.954 40.747H463.739Z" fill="#FFD52E"/>
<path d="M31.8401 40.747L0 120.373L32.3105 200H42.5249L10.2144 120.373L42.0545 40.747H31.8401Z" fill="#FFD52E"/>
<path d="M82.9314 111.602C75.3253 111.602 68.8842 109.536 63.6096 105.403L69.017 95.7085C71.1272 97.4243 73.5016 98.7 76.1389 99.5344C78.7776 100.369 81.217 100.787 83.4586 100.787C85.3058 100.787 86.6909 100.489 87.6138 99.8955C88.5367 99.3033 88.9989 98.5008 88.9989 97.4893C88.9989 96.8293 88.7886 96.28 88.3721 95.8399C87.9528 95.4013 87.3938 95.0056 86.6895 94.6527C85.9866 94.3013 85.1619 93.983 84.2169 93.6966C83.2704 93.4116 82.2479 93.1141 81.1492 92.8055C79.2148 92.2783 77.2583 91.675 75.2796 90.9929C73.3009 90.3107 71.5104 89.4099 69.9054 88.2878C68.3003 87.167 66.9927 85.7819 65.9826 84.1339C64.9711 82.486 64.4647 80.4312 64.4647 77.9682C64.4647 75.6381 64.9158 73.5819 65.8179 71.8011C66.7173 70.0203 67.9156 68.537 69.4114 67.3498C70.9044 66.1626 72.6202 65.2618 74.5546 64.6461C76.489 64.0303 78.4898 63.7231 80.557 63.7231C84.2058 63.7231 87.5156 64.1853 90.4822 65.1082C93.4488 66.0311 96.2287 67.4162 98.8245 69.2634L93.1527 78.9575C92.2727 78.2104 91.3069 77.5628 90.2511 77.0121C89.1954 76.4628 88.1285 76.0006 87.052 75.627C85.9741 75.2548 84.8976 74.967 83.8197 74.7705C82.7418 74.5726 81.7428 74.473 80.8199 74.473C79.2799 74.473 78.0926 74.7705 77.2583 75.3641C76.4225 75.9577 76.0047 76.781 76.0047 77.8368C76.0047 78.4968 76.2122 79.0572 76.6329 79.5193C77.0494 79.9815 77.6319 80.3758 78.3791 80.7065C79.1263 81.0359 80.0049 81.3333 81.0164 81.5962C82.0279 81.8605 83.1044 82.147 84.2487 82.4527C86.4017 82.9813 88.48 83.6081 90.4808 84.3332C92.4802 85.0582 94.2611 85.9701 95.8219 87.0701C97.3827 88.1688 98.6252 89.5206 99.5481 91.1257C100.472 92.7308 100.933 94.6984 100.933 97.0271C100.933 99.313 100.482 101.358 99.58 103.161C98.6778 104.964 97.4256 106.492 95.8205 107.745C94.2154 108.997 92.3156 109.954 90.1169 110.614C87.9182 111.274 85.5217 111.603 82.9273 111.603L82.9314 111.602Z" fill="#1D1D1B"/>
<path d="M114.39 74.9352H102.387V64.6474H138.394V74.9352H126.458V110.81H114.39V74.9352Z" fill="#1D1D1B"/>
<path d="M144.33 64.6474H174.27V74.9352H156.267V82.9813H172.951V92.609H156.267V100.522H174.929V110.811H144.33V64.6474Z" fill="#1D1D1B"/>
<path d="M200.45 86.4765C202.911 86.4765 204.736 85.9064 205.923 84.7607C207.111 83.6178 207.704 82.1677 207.704 80.409V79.8805C207.704 78.1661 207.111 76.8253 205.923 75.8581C204.736 74.8923 202.955 74.408 200.582 74.408H194.448V86.4751H200.45V86.4765ZM182.907 64.6474H202.427C207.747 64.6474 211.912 65.9564 214.924 68.5716C217.935 71.1881 219.442 74.7608 219.442 79.2869V79.9469C219.442 82.717 218.76 85.2008 217.397 87.3994C216.034 89.5995 214.166 91.2682 211.792 92.4125L222.41 110.811H208.694L200.649 95.1163H194.846V110.811H182.908V64.6474H182.907Z" fill="#1D1D1B"/>
<path d="M227.819 64.6474H241.073L257.033 92.9397H257.427V64.6474H268.968V110.811H257.229L239.688 79.5511H239.294V110.811H227.819V64.6474Z" fill="#1D1D1B"/>
<path d="M278.069 64.6474H308.011V74.9352H290.006V82.9813H306.691V92.609H290.006V100.522H308.669V110.811H278.069V64.6474Z" fill="#1D1D1B"/>
<path d="M316.648 64.6474H329.902L345.861 92.9397H346.257V64.6474H357.799V110.811H346.059L328.518 79.5511H328.123V110.811H316.648V64.6474Z" fill="#1D1D1B"/>
<path d="M366.899 64.6474H378.901V83.4421H379.561L393.145 64.6474H406.467L389.585 85.8829L407.323 110.811H393.344L379.495 89.7074H378.901V110.811H366.899V64.6474Z" fill="#1D1D1B"/>
<path d="M418.601 87.993C418.601 90.016 418.886 91.8618 419.457 93.5319C420.029 95.2034 420.809 96.6314 421.798 97.8186C422.786 99.0058 423.953 99.9191 425.293 100.556C426.634 101.193 428.051 101.512 429.547 101.512H430.272C431.809 101.512 433.24 101.193 434.557 100.556C435.877 99.9177 437.019 99.0044 437.987 97.8186C438.953 96.6314 439.724 95.2034 440.295 93.5319C440.867 91.8618 441.152 90.0146 441.152 87.993V87.4659C441.152 85.4 440.866 83.5417 440.295 81.8937C439.724 80.2444 438.944 78.8261 437.954 77.6389C436.965 76.4517 435.81 75.5398 434.492 74.902C433.172 74.2655 431.743 73.9458 430.206 73.9458H429.481C427.985 73.9458 426.579 74.2655 425.259 74.902C423.94 75.5398 422.785 76.4517 421.797 77.6389C420.809 78.8261 420.027 80.2444 419.456 81.8937C418.884 83.5417 418.599 85.4 418.599 87.4659V87.993H418.601ZM406.201 87.4659C406.201 84.08 406.773 80.9362 407.917 78.0346C409.06 75.1344 410.664 72.6175 412.731 70.4838C414.797 68.3516 417.249 66.6815 420.084 65.4721C422.919 64.2628 426.052 63.6581 429.481 63.6581H430.272C433.657 63.6581 436.778 64.2628 439.637 65.4721C442.494 66.6815 444.956 68.3405 447.023 70.4506C449.089 72.5608 450.692 75.0555 451.837 77.935C452.98 80.8145 453.551 83.9471 453.551 87.333V88.1245C453.551 91.4661 452.98 94.5863 451.837 97.4879C450.692 100.39 449.089 102.897 447.023 105.007C444.956 107.117 442.494 108.776 439.637 109.985C436.778 111.195 433.657 111.799 430.272 111.799H429.481C426.139 111.799 423.039 111.184 420.182 109.954C417.323 108.723 414.862 107.03 412.796 104.875C410.729 102.722 409.113 100.204 407.949 97.3246C406.784 94.4466 406.201 91.3346 406.201 87.993V87.4659Z" fill="#1D1D1B"/>
<path d="M73.7977 177.024C70.3675 177.024 67.203 176.43 64.3014 175.243C61.3998 174.056 58.9147 172.408 56.8489 170.298C54.7803 168.187 53.1655 165.671 52.0018 162.747C50.8354 159.823 50.2542 156.646 50.2542 153.217V152.888C50.2542 149.459 50.8354 146.293 52.0018 143.392C53.1655 140.49 54.7927 137.975 56.8807 135.841C58.9687 133.709 61.4427 132.048 64.3 130.861C67.156 129.674 70.2776 129.08 73.6635 129.08C77.6637 129.08 81.271 129.938 84.4798 131.653C87.6885 133.368 90.5237 135.852 92.9867 139.105L84.412 145.766C83.0047 143.7 81.52 142.171 79.9606 141.183C78.3998 140.194 76.5651 139.7 74.4536 139.7H74.3871C72.6271 139.7 71.0234 140.02 69.5733 140.656C68.1218 141.294 66.8792 142.195 65.847 143.36C64.8134 144.525 64.0233 145.91 63.4726 147.515C62.9233 149.12 62.6493 150.911 62.6493 152.889V153.285C62.6493 155.177 62.9233 156.924 63.4726 158.528C64.0233 160.133 64.8009 161.519 65.8152 162.683C66.8267 163.848 68.0457 164.75 69.475 165.387C70.903 166.025 72.4749 166.343 74.1906 166.343H74.2571C76.4115 166.343 78.3556 165.838 80.0935 164.827C81.83 163.816 83.3354 162.343 84.6112 160.408L93.0531 167.068C90.943 170.234 88.2392 172.686 84.9419 174.422C81.6446 176.159 77.9515 177.028 73.8627 177.028H73.7963L73.7977 177.024Z" fill="#1D1D1B"/>
<path d="M107.762 153.282C107.762 155.305 108.047 157.151 108.618 158.821C109.19 160.493 109.97 161.921 110.959 163.108C111.947 164.295 113.114 165.208 114.455 165.845C115.795 166.483 117.212 166.801 118.708 166.801H119.433C120.972 166.801 122.401 166.483 123.72 165.845C125.04 165.207 126.181 164.294 127.15 163.108C128.116 161.921 128.886 160.493 129.458 158.821C130.028 157.151 130.314 155.304 130.314 153.282V152.755C130.314 150.689 130.028 148.831 129.458 147.183C128.886 145.534 128.106 144.115 127.117 142.93C126.127 141.742 124.972 140.831 123.655 140.193C122.335 139.556 120.905 139.237 119.368 139.237H118.643C117.147 139.237 115.741 139.556 114.421 140.193C113.103 140.831 111.949 141.742 110.959 142.93C109.97 144.117 109.19 145.535 108.618 147.183C108.047 148.831 107.762 150.689 107.762 152.755V153.282ZM95.3625 152.755C95.3625 149.369 95.9326 146.226 97.0769 143.324C98.2198 140.422 99.8235 137.907 101.891 135.773C103.957 133.641 106.408 131.971 109.244 130.761C112.079 129.552 115.211 128.947 118.642 128.947H119.433C122.818 128.947 125.939 129.552 128.798 130.761C131.655 131.971 134.117 133.63 136.184 135.74C138.25 137.85 139.854 140.345 140.998 143.224C142.141 146.104 142.712 149.237 142.712 152.622V153.414C142.712 156.755 142.141 159.876 140.998 162.777C139.854 165.679 138.25 168.186 136.184 170.296C134.117 172.406 131.655 174.065 128.798 175.275C125.939 176.484 122.818 177.089 119.433 177.089H118.642C115.3 177.089 112.201 176.473 109.343 175.243C106.485 174.013 104.023 172.319 101.957 170.165C99.8899 168.012 98.2751 165.493 97.1101 162.614C95.945 159.735 95.3625 156.624 95.3625 153.282V152.755Z" fill="#1D1D1B"/>
<path d="M149.704 129.937H166.389L174.631 154.799H175.356L183.6 129.937H200.286V176.101H188.678V144.247H188.018L179.182 170.165H170.742L161.904 144.247H161.311V176.101H149.704V129.937Z" fill="#1D1D1B"/>
<path d="M209.385 129.937H226.071L234.314 154.799H235.039L243.283 129.937H259.968V176.101H248.361V144.247H247.701L238.865 170.165H230.424L221.587 144.247H220.993V176.101H209.385V129.937Z" fill="#1D1D1B"/>
<path d="M288.39 177.09C285.313 177.09 282.542 176.661 280.081 175.805C277.618 174.947 275.519 173.704 273.782 172.078C272.044 170.453 270.716 168.496 269.793 166.209C268.869 163.923 268.408 161.329 268.408 158.427V129.938H280.41V157.966C280.41 159.329 280.618 160.537 281.036 161.593C281.453 162.649 282.025 163.529 282.751 164.23C283.476 164.934 284.334 165.462 285.324 165.813C286.313 166.166 287.356 166.342 288.456 166.342C290.611 166.342 292.457 165.64 293.997 164.232C295.534 162.826 296.305 160.736 296.305 157.968V129.94H308.307V158.428C308.307 161.461 307.822 164.132 306.855 166.44C305.887 168.748 304.524 170.693 302.766 172.276C301.006 173.859 298.907 175.058 296.468 175.871C294.027 176.683 291.334 177.092 288.389 177.092L288.39 177.09Z" fill="#1D1D1B"/>
<path d="M316.747 129.937H330.003L345.962 158.229H346.358V129.937H357.898V176.101H346.159L328.618 144.842H328.222V176.101H316.747V129.937Z" fill="#1D1D1B"/>
<path d="M366.999 129.937H378.936V176.101H366.999V129.937Z" fill="#1D1D1B"/>
<path d="M396.873 140.225H384.87V129.938H420.877V140.225H408.941V176.099H396.873V140.225Z" fill="#1D1D1B"/>
<path d="M438.486 158.294L421.999 129.937H435.847L444.287 147.15H444.683L453.125 129.937H466.908L450.553 158.294V176.101H438.486V158.294Z" fill="#1D1D1B"/>
<path d="M56.9444 0.505142H74.5214V5.3951H62.4653V13.4883H73.6787V18.125H62.4653V30.0123H56.9444V0.505142Z" fill="white"/>
<path d="M97.6649 15.3853C97.6649 16.9032 97.8822 18.2869 98.318 19.5364C98.7525 20.7873 99.3641 21.8555 100.151 22.7396C100.937 23.6252 101.873 24.3143 102.955 24.8055C104.037 25.2981 105.223 25.543 106.516 25.543H106.811C108.076 25.543 109.242 25.2981 110.31 24.8055C111.379 24.3143 112.306 23.6252 113.093 22.7396C113.88 21.8541 114.491 20.7859 114.928 19.5364C115.364 18.2869 115.581 16.9019 115.581 15.3853V15.1321C115.581 13.6142 115.364 12.2305 114.928 10.9797C114.492 9.73019 113.889 8.65368 113.115 7.75429C112.342 6.85489 111.413 6.16028 110.333 5.66768C109.251 5.17647 108.062 4.93018 106.77 4.93018H106.474C105.21 4.93018 104.035 5.17647 102.955 5.66768C101.873 6.16028 100.937 6.85489 100.151 7.75429C99.3641 8.65368 98.7525 9.72881 98.318 10.9797C97.8822 12.2305 97.6649 13.6142 97.6649 15.1321V15.3853ZM106.375 9.15527e-05H106.868C108.938 0.0125448 110.851 0.390292 112.607 1.13748C114.392 1.89713 115.931 2.95012 117.225 4.29921C118.517 5.64831 119.522 7.2437 120.238 9.08401C120.954 10.9243 121.312 12.9265 121.312 15.0906V15.4268C121.312 17.5923 120.954 19.5945 120.238 21.4348C119.522 23.2751 118.517 24.8705 117.225 26.2196C115.931 27.5687 114.392 28.6217 112.607 29.3813C110.824 30.141 108.877 30.5201 106.77 30.5201H106.474C104.366 30.5201 102.421 30.1327 100.636 29.362C98.8508 28.5885 97.319 27.5272 96.0405 26.1781C94.762 24.829 93.7574 23.2281 93.0268 21.3726C92.2962 19.5184 91.9309 17.5231 91.9309 15.3867V15.1335C91.9309 12.9694 92.2893 10.9603 93.0061 9.10477C93.7214 7.24924 94.7274 5.64831 96.0197 4.29921C97.3121 2.95012 98.8508 1.89713 100.636 1.13748C102.392 0.390292 104.305 0.0125448 106.375 9.15527e-05Z" fill="white"/>
<path d="M152.296 30.5187C150.442 30.5187 148.769 30.2586 147.28 29.7383C145.79 29.2195 144.526 28.4598 143.486 27.4608C142.445 26.4645 141.645 25.2414 141.084 23.794C140.521 22.3467 140.24 20.7098 140.24 18.8833V0.505142H145.805V18.5471C145.805 20.7665 146.394 22.4671 147.575 23.646C148.755 24.8276 150.328 25.4171 152.296 25.4171C154.262 25.4171 155.83 24.8276 156.996 23.646C158.161 22.4657 158.746 20.7665 158.746 18.5471V0.505142H164.31V18.8833C164.31 20.7665 164.022 22.4311 163.445 23.8784C162.87 25.3258 162.062 26.542 161.023 27.5258C159.984 28.5096 158.726 29.2527 157.251 29.7591C155.776 30.2655 154.124 30.5187 152.296 30.5187Z" fill="white"/>
<path d="M185.05 0.505142H191.247L203.471 21.4556H203.809V0.505142H209.163V30.0123H203.513L190.783 8.0504H190.445V30.0123H185.05V0.505142Z" fill="white"/>
<path d="M240.229 25.1237C241.718 25.1237 243.046 24.8844 244.213 24.407C245.378 23.9296 246.363 23.2558 247.164 22.384C247.965 21.5137 248.584 20.487 249.018 19.3067C249.454 18.1264 249.673 16.8202 249.673 15.3867V14.67C249.673 13.2932 249.454 12.0354 249.018 10.898C248.584 9.75926 247.957 8.78376 247.142 7.96738C246.327 7.15239 245.336 6.52004 244.171 6.07034C243.005 5.62203 241.692 5.39649 240.231 5.39649H235.889V25.1251H240.231L240.229 25.1237ZM230.366 0.506531H240.188C242.465 0.506531 244.537 0.857988 246.406 1.55952C248.275 2.26243 249.876 3.23932 251.213 4.49017C252.545 5.74103 253.586 7.22988 254.332 8.9581C255.076 10.6863 255.45 12.5903 255.45 14.67V15.4725C255.45 17.5785 255.078 19.5253 254.332 21.3103C253.587 23.0953 252.547 24.6339 251.213 25.9263C249.878 27.22 248.275 28.2232 246.406 28.94C244.537 29.6567 242.465 30.0151 240.188 30.0151H230.366V0.507914V0.506531Z" fill="white"/>
<path d="M288.579 18.5056L284.363 6.02745H284.026L279.768 18.5056H288.578H288.579ZM280.571 0.506531H287.821L298.192 30.0137H292.289L290.012 23.0593H278.378L276.101 30.0137H270.157L280.569 0.506531H280.571Z" fill="white"/>
<path d="M318.974 5.3951H310.71V0.505142H332.799V5.3951H324.494V30.0123H318.974V5.3951Z" fill="white"/>
<path d="M351.053 0.506531H356.575V30.0137H351.053V0.506531Z" fill="white"/>
<path d="M381.699 15.3853C381.699 16.9032 381.916 18.2869 382.352 19.5364C382.787 20.7873 383.398 21.8555 384.185 22.7396C384.971 23.6252 385.907 24.3143 386.989 24.8055C388.071 25.2981 389.257 25.543 390.55 25.543H390.845C392.11 25.543 393.276 25.2981 394.345 24.8055C395.413 24.3143 396.34 23.6252 397.127 22.7396C397.914 21.8541 398.525 20.7859 398.962 19.5364C399.398 18.2869 399.615 16.9019 399.615 15.3853V15.1321C399.615 13.6142 399.398 12.2305 398.962 10.9797C398.526 9.73019 397.923 8.65368 397.149 7.75429C396.376 6.85489 395.447 6.16028 394.367 5.66768C393.285 5.17647 392.096 4.93018 390.804 4.93018H390.508C389.244 4.93018 388.069 5.17647 386.989 5.66768C385.907 6.16028 384.971 6.85489 384.185 7.75429C383.398 8.65368 382.787 9.72881 382.352 10.9797C381.916 12.2305 381.699 13.6142 381.699 15.1321V15.3853ZM390.409 9.15527e-05H390.902C392.972 0.0125448 394.886 0.390292 396.641 1.13748C398.426 1.89713 399.965 2.95012 401.259 4.29921C402.551 5.64831 403.556 7.2437 404.272 9.08401C404.988 10.9243 405.346 12.9265 405.346 15.0906V15.4268C405.346 17.5923 404.988 19.5945 404.272 21.4348C403.556 23.2751 402.551 24.8705 401.259 26.2196C399.965 27.5687 398.426 28.6217 396.641 29.3813C394.858 30.141 392.911 30.5201 390.804 30.5201H390.508C388.4 30.5201 386.455 30.1327 384.67 29.362C382.885 28.5885 381.354 27.5272 380.075 26.1781C378.796 24.829 377.791 23.2281 377.061 21.3726C376.33 19.5184 375.965 17.5231 375.965 15.3867V15.1335C375.965 12.9694 376.323 10.9603 377.04 9.10477C377.755 7.24924 378.761 5.64831 380.054 4.29921C381.346 2.95012 382.885 1.89713 384.67 1.13748C386.426 0.390292 388.339 0.0125448 390.409 9.15527e-05Z" fill="white"/>
<path d="M424.696 0.505142H430.892L443.117 21.4556H443.454V0.505142H448.808V30.0123H443.158L430.428 8.0504H430.092V30.0123H424.696V0.505142Z" fill="white"/>
</g>
<defs>
<clipPath id="clip0_604_7611">
<rect width="505.792" height="200" fill="white"/>
</clipPath>
</defs>
</svg>
